<svg width="500" height="346" viewBox="0 0 500 346" fill="none" xmlns="http://www.w3.org/2000/svg">
<g clip-path="url(#clip0_216_48)">
<path d="M499.969 163.499C499.969 73.4143 388.055 0 249.999 0C111.943 0 0.0291727 73.4143 0.0291727 163.499C0.0291727 165.831 0 172.242 0 173.058C0 268.622 97.808 346 249.97 346C403.064 346 499.969 268.622 499.969 173.058V163.499Z" fill="#03264C"/>
<path d="M490.401 163.423C490.401 248.349 382.801 317.188 250.049 317.188C117.297 317.188 9.69678 248.349 9.69678 163.423C9.69678 78.4967 117.297 9.6582 250.049 9.6582C382.801 9.6582 490.401 78.4967 490.401 163.423Z" fill="#EAC926"/>
<path d="M170.254 114.909C170.137 115.142 167.718 117.619 169.292 119.63C173.081 124.468 184.797 127.266 196.658 124.585C203.711 123.011 212.746 115.812 221.518 108.847C231.019 101.299 240.433 93.7503 249.905 90.7485C259.931 87.5717 266.342 88.9124 270.597 90.2239C275.26 91.6228 280.71 94.6829 289.454 101.24C305.891 113.598 372.048 171.332 383.444 181.3C392.653 177.132 433.543 159.529 489.121 147.288C484.283 117.649 466.271 90.5445 438.934 68.3657C400.843 84.3659 354.299 92.7012 308.747 70.4933C308.514 70.4059 283.887 58.7481 259.581 59.3018C223.471 60.147 207.821 75.7684 191.267 92.3223L170.254 114.909Z" fill="white"/>
<path d="M380.731 187.571C379.944 186.871 302.974 119.519 285.546 106.404C275.462 98.8264 269.837 96.9029 263.95 96.1452C260.89 95.7371 256.635 96.32 253.691 97.1361C245.589 99.351 234.981 106.433 225.567 113.894C215.804 121.646 206.623 128.962 198.084 130.885C187.184 133.333 173.865 130.448 167.803 126.339C165.326 124.677 163.606 122.783 162.761 120.83C160.517 115.613 164.656 111.475 165.326 110.776L186.572 87.8099C189.049 85.3326 191.527 82.8845 194.062 80.4364C187.213 81.3399 180.86 83.0885 174.71 84.808C167.016 86.9647 159.614 89.034 152.124 89.034C149.005 89.034 132.247 86.2944 129.07 85.4201C109.835 80.145 92.9608 75.0448 67.7802 63.2705C37.5868 85.7407 17.3899 113.865 11.561 144.816C15.9035 145.953 22.8982 148.051 25.8126 148.692C94.1557 163.876 115.46 179.556 119.307 182.82C123.475 178.186 129.508 175.213 136.24 175.213C143.817 175.213 150.608 179.031 154.747 184.889C158.652 181.8 164.073 179.148 171.038 179.148C174.215 179.148 177.508 179.731 180.831 180.867C188.525 183.519 192.517 188.649 194.587 193.283C197.181 192.117 200.357 191.243 204.088 191.272C207.76 191.272 211.607 192.117 215.454 193.778C228.044 199.199 230.026 211.556 228.86 220.882C229.764 220.766 230.667 220.737 231.571 220.737C246.522 220.737 258.646 232.89 258.646 247.841C258.646 252.475 257.451 256.817 255.411 260.635C259.462 262.908 269.837 268.096 278.93 266.93C286.187 265.998 288.956 263.52 289.946 262.121C290.617 261.16 291.345 260.052 290.675 259.236L271.382 237.815C271.382 237.815 268.205 234.813 269.254 233.647C270.332 232.453 272.285 234.172 273.684 235.338C283.506 243.527 295.484 255.914 295.484 255.914C295.688 256.03 296.475 257.604 300.905 258.391C304.723 259.061 311.484 258.682 316.147 254.835C317.313 253.874 318.508 252.649 319.499 251.396C319.411 251.455 319.353 251.542 319.295 251.571C324.22 245.247 318.741 238.864 318.741 238.864L296.212 213.596C296.212 213.596 293.007 210.624 294.085 209.429C295.076 208.379 297.145 209.953 298.544 211.119C305.684 217.094 315.739 227.177 325.386 236.649C327.28 238.048 335.761 243.265 346.982 235.892C353.801 231.433 355.171 225.924 354.967 221.786C354.501 216.307 350.217 212.401 350.217 212.401L319.47 181.479C319.47 181.479 316.235 178.711 317.371 177.312C318.304 176.146 320.431 177.836 321.801 179.002C331.594 187.192 358.115 211.498 358.115 211.498C358.494 211.76 367.645 218.288 378.982 211.09C383.033 208.496 385.627 204.591 385.831 200.073C386.268 192.263 380.731 187.571 380.731 187.571Z" fill="white"/>
<path d="M231.568 226.774C226.789 226.715 221.572 229.542 220.901 229.134C220.523 228.872 221.193 226.978 221.63 225.87C222.096 224.763 228.362 205.877 213.062 199.32C201.346 194.278 194.205 199.932 191.728 202.497C191.087 203.167 190.796 203.109 190.708 202.263C190.475 198.854 188.959 189.644 178.846 186.584C164.391 182.154 155.123 192.238 152.762 195.881C151.713 187.662 144.748 181.25 136.208 181.25C126.941 181.25 119.421 188.741 119.421 198.008C119.421 207.276 126.941 214.766 136.208 214.766C140.697 214.766 144.806 212.989 147.808 210.074C147.895 210.162 147.954 210.307 147.895 210.628C147.196 214.766 145.884 229.863 161.68 235.983C168.005 238.431 173.396 236.624 177.855 233.477C179.196 232.544 179.4 232.923 179.225 234.176C178.642 238.053 179.371 246.359 191 251.08C199.859 254.665 205.105 250.993 208.515 247.816C210.002 246.446 210.41 246.679 210.497 248.778C210.905 259.998 220.231 268.916 231.568 268.916C243.226 268.916 252.669 259.503 252.698 247.845C252.669 236.216 243.226 226.89 231.568 226.774Z" fill="white"/>
<path d="M231.568 267.46C220.989 267.46 212.421 259.241 212.013 248.778C211.983 247.875 211.896 245.485 209.885 245.485C209.04 245.485 208.34 245.98 207.495 246.738C205.164 248.895 202.22 251.081 197.878 251.081C195.925 251.081 193.798 250.614 191.553 249.711C180.391 245.194 180.245 237.529 180.712 234.439C180.828 233.623 180.857 232.778 180.304 232.079L179.633 231.467H178.934C178.351 231.467 177.797 231.7 176.981 232.254C173.746 234.527 170.657 235.605 167.509 235.605C165.79 235.605 164.012 235.255 162.205 234.585C147.517 228.873 148.682 215 149.382 210.833C149.498 209.987 149.265 209.346 148.741 208.909L147.691 208.064L146.73 208.996C143.873 211.765 140.114 213.252 136.179 213.252C127.757 213.252 120.908 206.403 120.937 198.009C120.937 189.586 127.786 182.767 136.209 182.767C143.815 182.767 150.285 188.479 151.247 196.086L151.772 200.195L154.016 196.727C154.278 196.319 160.427 186.993 171.764 187.022C173.921 187.022 176.136 187.371 178.38 188.071C187.415 190.84 188.96 199.029 189.193 202.439C189.338 204.421 190.766 204.508 191.058 204.508C191.845 204.508 192.428 204.013 192.807 203.576C194.526 201.798 198.227 198.854 204.027 198.854C206.679 198.854 209.506 199.495 212.45 200.749C226.818 206.898 220.29 225.142 220.231 225.346C219.007 228.377 218.949 229.718 220.115 230.476L220.668 230.738H221.076C221.718 230.738 222.534 230.447 223.874 230.009C225.827 229.339 228.771 228.319 231.539 228.319C242.352 228.436 251.153 237.237 251.124 247.933C251.153 258.687 242.352 267.46 231.568 267.46ZM383.701 179.532C359.978 158.839 305.187 111.189 290.352 100.055C281.871 93.6729 276.101 90.3213 271 88.8058C268.727 88.1064 265.551 87.3194 261.499 87.3194C257.711 87.3194 253.66 87.9897 249.434 89.3595C239.845 92.3905 230.286 99.9972 221.047 107.342L220.581 107.72C211.954 114.569 203.065 121.651 196.333 123.138C193.389 123.808 190.388 124.158 187.357 124.158C179.808 124.158 173.047 121.972 170.511 118.737C170.103 118.212 170.366 117.338 171.356 116.085L171.473 115.91L192.34 93.4397C208.69 77.0898 224.107 61.6725 259.634 60.8565C260.217 60.8565 260.829 60.8274 261.412 60.8274C283.532 60.8274 305.624 70.7364 308.101 71.873C328.852 81.986 350.244 87.1154 371.752 87.1446C394.164 87.1446 417.304 81.6072 441.64 70.3867C438.929 68.1134 436.102 65.8693 433.188 63.6835C411.825 72.9513 391.453 77.6435 371.839 77.6144C351.788 77.5853 331.737 72.7765 312.269 63.2755C311.249 62.78 286.826 51.2681 261.441 51.2681C260.771 51.2681 260.101 51.2681 259.43 51.2972C229.587 51.9967 212.77 62.6051 201.492 71.873C190.504 72.1353 181.003 74.7875 172.581 77.1481C165.061 79.2465 158.562 81.0534 152.209 81.0534C149.586 81.0534 144.894 80.8203 144.456 80.7912C137.17 80.558 100.419 71.5524 71.1879 60.5068C68.2151 62.6052 65.3299 64.791 62.532 67.0059C93.0751 79.5379 130.234 89.2138 141.95 89.9716C145.214 90.1756 148.682 90.5544 152.18 90.5544C159.932 90.5544 167.684 88.3686 175.174 86.2702C179.604 85.017 184.501 83.6764 189.63 82.6855C188.26 84.0261 186.89 85.3959 185.521 86.7657L164.333 109.702C162.671 111.393 159.058 115.881 161.418 121.418C162.38 123.662 164.304 125.79 166.985 127.597C172.027 131.007 181.091 133.309 189.484 133.309C192.661 133.309 195.692 132.988 198.461 132.376C207.35 130.395 216.676 122.963 226.526 115.123C234.395 108.857 245.558 100.93 254.126 98.5983C256.516 97.9571 259.459 97.5491 261.82 97.5491C262.52 97.5491 263.19 97.5782 263.802 97.6656C269.456 98.3942 274.935 100.318 284.669 107.633C302.068 120.69 379.067 188.042 379.796 188.712C379.854 188.77 384.75 192.996 384.43 200.02C384.255 203.955 382.069 207.423 378.28 209.842C374.987 211.911 371.606 212.989 368.167 212.989C363.009 212.989 359.482 210.57 359.249 210.395C358.958 210.162 332.582 185.973 322.877 177.841C321.333 176.559 319.817 175.422 318.302 175.422C317.485 175.422 316.786 175.772 316.291 176.384C314.775 178.278 316.465 180.872 318.476 182.592L349.282 213.572C349.311 213.601 353.129 217.186 353.537 221.907C353.77 227.037 351.322 231.321 346.222 234.673C342.579 237.062 338.906 238.286 335.293 238.286C330.571 238.286 327.249 236.13 326.52 235.634L322.09 231.292C314.017 223.335 305.682 215.117 299.562 210.017C298.075 208.792 296.473 207.627 294.957 207.627C294.228 207.627 293.529 207.918 293.004 208.443C292.305 209.23 291.839 210.599 293.558 212.902C294.258 213.864 295.103 214.65 295.103 214.65L317.602 239.889C317.777 240.122 322.236 245.398 318.098 250.673L317.311 251.664C316.64 252.421 315.912 253.092 315.212 253.675C311.365 256.822 306.265 257.172 304.225 257.172C303.147 257.172 302.097 257.084 301.165 256.91C298.95 256.502 297.463 255.889 296.735 255.044L296.473 254.782C295.248 253.5 283.911 241.929 274.527 234.119C273.303 233.07 271.758 231.758 270.155 231.758C269.368 231.758 268.669 232.079 268.115 232.662C266.25 234.702 269.048 237.733 270.243 238.84L289.42 259.999C289.39 260.203 289.157 260.64 288.691 261.31C287.992 262.243 285.689 264.574 278.724 265.449C277.908 265.536 277.033 265.595 276.188 265.595C269.019 265.595 261.354 262.126 257.419 260.028C259.226 256.239 260.13 252.072 260.13 247.875C260.13 232.079 247.335 219.255 231.539 219.255C231.219 219.255 230.84 219.255 230.519 219.284C231.044 212.086 230.024 198.446 216.005 192.413C211.983 190.665 207.962 189.79 204.056 189.79C200.996 189.79 198.053 190.315 195.284 191.364C192.399 185.739 187.561 181.63 181.266 179.473C177.797 178.279 174.329 177.666 171.007 177.666C165.178 177.666 159.815 179.386 155.007 182.796C150.431 177.084 143.495 173.703 136.179 173.703C129.797 173.703 123.647 176.268 119.101 180.756C113.126 176.209 89.4613 161.171 26.0726 146.774C23.0125 146.074 15.9596 144.063 11.6462 142.781C10.9176 146.22 10.393 149.688 10.0142 153.185C10.0142 153.185 21.701 155.983 24.0034 156.508C88.7327 170.876 110.125 185.856 113.768 188.654C112.543 191.597 111.902 194.774 111.902 197.98C111.902 211.357 122.773 222.257 136.15 222.257C137.666 222.257 139.152 222.141 140.609 221.849C142.62 231.7 149.061 239.161 158.912 242.979C161.797 244.086 164.712 244.64 167.539 244.64C169.375 244.64 171.24 244.407 173.076 243.94C174.883 248.574 178.992 254.316 188.144 258.017C191.349 259.299 194.555 259.999 197.674 259.999C200.209 259.999 202.716 259.562 205.076 258.658C209.448 269.325 219.882 276.407 231.51 276.407C239.204 276.407 246.607 273.289 251.998 267.722C256.603 270.287 266.367 274.921 276.217 274.95C277.5 274.95 278.695 274.862 279.889 274.717C289.682 273.493 294.228 269.675 296.327 266.673C296.706 266.148 297.055 265.594 297.347 265.041C299.649 265.711 302.214 266.236 305.099 266.236C310.433 266.236 315.562 264.429 320.75 260.64C325.85 256.968 329.464 251.693 329.988 247.205C329.988 247.146 330.017 247.088 330.017 247.001C331.737 247.35 333.486 247.554 335.263 247.554C340.772 247.554 346.163 245.835 351.351 242.454C361.318 235.926 363.067 227.357 362.892 221.791C364.641 222.17 366.419 222.345 368.196 222.345C373.355 222.345 378.426 220.771 383.264 217.711C389.443 213.747 393.173 207.714 393.727 200.661C394.106 195.882 392.94 191.044 390.404 186.905C407.104 179.707 445.312 165.776 490.281 155.633C490.019 152.136 489.495 148.697 488.883 145.287C434.47 157.411 393.872 174.985 383.701 179.532Z" fill="#03264C"/>
</g>
<defs>
<clipPath id="clip0_216_48">
<rect width="500" height="346" fill="white"/>
</clipPath>
</defs>
</svg>
