<svg width="287" height="69" viewBox="0 0 287 69" fill="none" xmlns="http://www.w3.org/2000/svg">
<g clip-path="url(#clip0_1_2)">
<path d="M25.1125 0H287L265.076 91H0L25.1125 0Z" fill="#2C2C2C"/>
<path d="M150.5 0H287L272 91H130L150.5 0Z" fill="#F39200"/>
<path d="M74.74 29V14.26H77.22L81.86 26.04L86.52 14.26H89.02V29H87.18V17.04L82.38 29H81.36L76.56 17.06V29H74.74ZM93.5144 29L91.4344 26.9V24.52L93.5144 22.42H98.8344V21.12L97.7544 20.02H92.7944V18.54H98.5144L100.594 20.64V29H98.8344V27.38L97.2144 29H93.5144ZM94.2944 27.6H96.7744L98.8344 25.56V23.8L94.2944 23.82L93.1944 24.9V26.5L94.2944 27.6ZM105.641 29L103.541 26.9V20.64L105.641 18.54H109.481L111.101 20.2V14.26H112.861V29H111.101V27.36L109.481 29H105.641ZM109.041 27.6L111.101 25.52V22.04L109.041 19.94H106.401L105.301 21.04V26.5L106.401 27.6H109.041ZM117.984 29L115.884 26.9V20.64L117.984 18.54H122.644L124.744 20.64V24.42H117.644V26.44L118.744 27.54H124.564V29H117.984ZM117.644 23.02H122.984V21.04L121.884 19.94H118.744L117.644 21.04V23.02ZM132.218 29V14.26H133.978V20.2L135.578 18.54H139.438L141.518 20.64V26.9L139.438 29H135.578L133.978 27.36V29H132.218ZM136.038 27.6H138.678L139.758 26.5V21.04L138.678 19.94H136.038L133.978 22.04V25.52L136.038 27.6ZM145.873 32.74L147.753 28.28H147.013L142.713 18.54H144.653L148.013 26.54H148.473L151.573 18.54H153.493L147.653 32.74H145.873ZM155.022 20.9V18.54H156.782V20.9H155.022ZM155.022 29V26.64H156.782V29H155.022ZM115.982 53L113.902 50.9V47.52H115.722V50.28L116.822 51.38H119.802L120.902 50.28V38.26H122.722V50.9L120.622 53H115.982ZM127.225 53L125.145 50.9V48.52L127.225 46.42H132.545V45.12L131.465 44.02H126.505V42.54H132.225L134.305 44.64V53H132.545V51.38L130.925 53H127.225ZM128.005 51.6H130.485L132.545 49.56V47.8L128.005 47.82L126.905 48.9V50.5L128.005 51.6ZM140.337 53L135.897 42.54H137.817L141.197 51.24H141.657L145.017 42.54H146.957L142.517 53H140.337ZM148.859 41.4V39.04H150.619V41.4H148.859ZM148.859 53V42.54H150.619V53H148.859ZM160.132 53L158.032 50.9V40.36L160.132 38.26H166.792L168.832 40.3L167.672 41.48L166.072 39.88H160.952L159.852 40.98V50.28L160.952 51.38H166.232L167.852 49.76L169.012 50.94L166.932 53H160.132ZM172.401 53L170.321 50.9V48.52L172.401 46.42H177.721V45.12L176.641 44.02H171.681V42.54H177.401L179.481 44.64V53H177.721V51.38L176.101 53H172.401ZM173.181 51.6H175.661L177.721 49.56V47.8L173.181 47.82L172.081 48.9V50.5L173.181 51.6ZM182.667 41.4V39.04H184.427V41.4H182.667ZM182.667 53V42.54H184.427V53H182.667ZM189.547 53L187.447 50.9V44.64L189.547 42.54H194.507L196.607 44.64V50.9L194.507 53H189.547ZM190.307 51.6H193.747L194.847 50.5L194.827 45.04L193.747 43.94H190.307L189.207 45.04V50.5L190.307 51.6ZM199.64 53V38.26H201.4V53H199.64ZM205.8 53L203.72 50.9V48.52L205.8 46.42H211.12V45.12L210.04 44.02H205.08V42.54H210.8L212.88 44.64V53H211.12V51.38L209.5 53H205.8ZM206.58 51.6H209.06L211.12 49.56V47.8L206.58 47.82L205.48 48.9V50.5L206.58 51.6Z" fill="white"/>
<path d="M74.74 29H74.24V29.5H74.74V29ZM74.74 14.26V13.76H74.24V14.26H74.74ZM77.22 14.26L77.6852 14.0768L77.5604 13.76H77.22V14.26ZM81.86 26.04L81.3948 26.2232L81.859 27.4018L82.3249 26.2239L81.86 26.04ZM86.52 14.26V13.76H86.1801L86.0551 14.0761L86.52 14.26ZM89.02 14.26H89.52V13.76H89.02V14.26ZM89.02 29V29.5H89.52V29H89.02ZM87.18 29H86.68V29.5H87.18V29ZM87.18 17.04H87.68L86.716 16.8538L87.18 17.04ZM82.38 29V29.5H82.7181L82.844 29.1862L82.38 29ZM81.36 29L80.8961 29.1865L81.0221 29.5H81.36V29ZM76.56 17.06L77.0239 16.8735L76.06 17.06H76.56ZM76.56 29V29.5H77.06V29H76.56ZM75.24 29V14.26H74.24V29H75.24ZM74.74 14.76H77.22V13.76H74.74V14.76ZM76.7548 14.4432L81.3948 26.2232L82.3252 25.8568L77.6852 14.0768L76.7548 14.4432ZM82.3249 26.2239L86.9849 14.4439L86.0551 14.0761L81.3951 25.8561L82.3249 26.2239ZM86.52 14.76H89.02V13.76H86.52V14.76ZM88.52 14.26V29H89.52V14.26H88.52ZM89.02 28.5H87.18V29.5H89.02V28.5ZM87.68 29V17.04H86.68V29H87.68ZM86.716 16.8538L81.916 28.8138L82.844 29.1862L87.644 17.2262L86.716 16.8538ZM82.38 28.5H81.36V29.5H82.38V28.5ZM81.8239 28.8135L77.0239 16.8735L76.0961 17.2465L80.8961 29.1865L81.8239 28.8135ZM76.06 17.06V29H77.06V17.06H76.06ZM76.56 28.5H74.74V29.5H76.56V28.5ZM93.5144 29L93.1591 29.3519L93.3059 29.5H93.5144V29ZM91.4344 26.9H90.9344V27.1057L91.0791 27.2519L91.4344 26.9ZM91.4344 24.52L91.0791 24.1681L90.9344 24.3143V24.52H91.4344ZM93.5144 22.42V21.92H93.3059L93.1591 22.0681L93.5144 22.42ZM98.8344 22.42V22.92H99.3344V22.42H98.8344ZM98.8344 21.12H99.3344V20.9156L99.1912 20.7697L98.8344 21.12ZM97.7544 20.02L98.1112 19.6697L97.9642 19.52H97.7544V20.02ZM92.7944 20.02H92.2944V20.52H92.7944V20.02ZM92.7944 18.54V18.04H92.2944V18.54H92.7944ZM98.5144 18.54L98.8696 18.1881L98.7229 18.04H98.5144V18.54ZM100.594 20.64H101.094V20.4343L100.95 20.2881L100.594 20.64ZM100.594 29V29.5H101.094V29H100.594ZM98.8344 29H98.3344V29.5H98.8344V29ZM98.8344 27.38H99.3344V26.1729L98.4808 27.0264L98.8344 27.38ZM97.2144 29V29.5H97.4215L97.5679 29.3536L97.2144 29ZM94.2944 27.6L93.9408 27.9536L94.0873 28.1H94.2944V27.6ZM96.7744 27.6V28.1H96.9801L97.1262 27.9553L96.7744 27.6ZM98.8344 25.56L99.1862 25.9153L99.3344 25.7685V25.56H98.8344ZM98.8344 23.8H99.3344V23.2978L98.8322 23.3L98.8344 23.8ZM94.2944 23.82L94.2922 23.32L94.089 23.3209L93.9441 23.4632L94.2944 23.82ZM93.1944 24.9L92.8441 24.5432L92.6944 24.6902V24.9H93.1944ZM93.1944 26.5H92.6944V26.7071L92.8408 26.8536L93.1944 26.5ZM93.8696 28.6481L91.7896 26.5481L91.0791 27.2519L93.1591 29.3519L93.8696 28.6481ZM91.9344 26.9V24.52H90.9344V26.9H91.9344ZM91.7896 24.8719L93.8696 22.7719L93.1591 22.0681L91.0791 24.1681L91.7896 24.8719ZM93.5144 22.92H98.8344V21.92H93.5144V22.92ZM99.3344 22.42V21.12H98.3344V22.42H99.3344ZM99.1912 20.7697L98.1112 19.6697L97.3976 20.3703L98.4776 21.4703L99.1912 20.7697ZM97.7544 19.52H92.7944V20.52H97.7544V19.52ZM93.2944 20.02V18.54H92.2944V20.02H93.2944ZM92.7944 19.04H98.5144V18.04H92.7944V19.04ZM98.1591 18.8919L100.239 20.9919L100.95 20.2881L98.8696 18.1881L98.1591 18.8919ZM100.094 20.64V29H101.094V20.64H100.094ZM100.594 28.5H98.8344V29.5H100.594V28.5ZM99.3344 29V27.38H98.3344V29H99.3344ZM98.4808 27.0264L96.8608 28.6464L97.5679 29.3536L99.1879 27.7336L98.4808 27.0264ZM97.2144 28.5H93.5144V29.5H97.2144V28.5ZM94.2944 28.1H96.7744V27.1H94.2944V28.1ZM97.1262 27.9553L99.1862 25.9153L98.4826 25.2047L96.4226 27.2447L97.1262 27.9553ZM99.3344 25.56V23.8H98.3344V25.56H99.3344ZM98.8322 23.3L94.2922 23.32L94.2966 24.32L98.8366 24.3L98.8322 23.3ZM93.9441 23.4632L92.8441 24.5432L93.5447 25.2568L94.6447 24.1768L93.9441 23.4632ZM92.6944 24.9V26.5H93.6944V24.9H92.6944ZM92.8408 26.8536L93.9408 27.9536L94.6479 27.2464L93.5479 26.1464L92.8408 26.8536ZM105.641 29L105.287 29.3536L105.434 29.5H105.641V29ZM103.541 26.9H103.041V27.1071L103.187 27.2536L103.541 26.9ZM103.541 20.64L103.187 20.2864L103.041 20.4329V20.64H103.541ZM105.641 18.54V18.04H105.434L105.287 18.1864L105.641 18.54ZM109.481 18.54L109.838 18.1908L109.691 18.04H109.481V18.54ZM111.101 20.2L110.743 20.5492L111.601 21.4282V20.2H111.101ZM111.101 14.26V13.76H110.601V14.26H111.101ZM112.861 14.26H113.361V13.76H112.861V14.26ZM112.861 29V29.5H113.361V29H112.861ZM111.101 29H110.601V29.5H111.101V29ZM111.101 27.36H111.601V26.1423L110.745 27.0086L111.101 27.36ZM109.481 29V29.5H109.69L109.836 29.3514L109.481 29ZM109.041 27.6V28.1H109.249L109.396 27.9518L109.041 27.6ZM111.101 25.52L111.456 25.8718L111.601 25.7257V25.52H111.101ZM111.101 22.04H111.601V21.8357L111.458 21.6899L111.101 22.04ZM109.041 19.94L109.398 19.5899L109.251 19.44H109.041V19.94ZM106.401 19.94V19.44H106.194L106.047 19.5864L106.401 19.94ZM105.301 21.04L104.947 20.6864L104.801 20.8329V21.04H105.301ZM105.301 26.5H104.801V26.7071L104.947 26.8536L105.301 26.5ZM106.401 27.6L106.047 27.9536L106.194 28.1H106.401V27.6ZM105.994 28.6464L103.894 26.5464L103.187 27.2536L105.287 29.3536L105.994 28.6464ZM104.041 26.9V20.64H103.041V26.9H104.041ZM103.894 20.9936L105.994 18.8936L105.287 18.1864L103.187 20.2864L103.894 20.9936ZM105.641 19.04H109.481V18.04H105.641V19.04ZM109.123 18.8892L110.743 20.5492L111.458 19.8508L109.838 18.1908L109.123 18.8892ZM111.601 20.2V14.26H110.601V20.2H111.601ZM111.101 14.76H112.861V13.76H111.101V14.76ZM112.361 14.26V29H113.361V14.26H112.361ZM112.861 28.5H111.101V29.5H112.861V28.5ZM111.601 29V27.36H110.601V29H111.601ZM110.745 27.0086L109.125 28.6486L109.836 29.3514L111.456 27.7114L110.745 27.0086ZM109.481 28.5H105.641V29.5H109.481V28.5ZM109.396 27.9518L111.456 25.8718L110.745 25.1682L108.685 27.2482L109.396 27.9518ZM111.601 25.52V22.04H110.601V25.52H111.601ZM111.458 21.6899L109.398 19.5899L108.684 20.2901L110.744 22.3901L111.458 21.6899ZM109.041 19.44H106.401V20.44H109.041V19.44ZM106.047 19.5864L104.947 20.6864L105.654 21.3936L106.754 20.2936L106.047 19.5864ZM104.801 21.04V26.5H105.801V21.04H104.801ZM104.947 26.8536L106.047 27.9536L106.754 27.2464L105.654 26.1464L104.947 26.8536ZM106.401 28.1H109.041V27.1H106.401V28.1ZM117.984 29L117.631 29.3536L117.777 29.5H117.984V29ZM115.884 26.9H115.384V27.1071L115.531 27.2536L115.884 26.9ZM115.884 20.64L115.531 20.2864L115.384 20.4329V20.64H115.884ZM117.984 18.54V18.04H117.777L117.631 18.1864L117.984 18.54ZM122.644 18.54L122.998 18.1864L122.851 18.04H122.644V18.54ZM124.744 20.64H125.244V20.4329L125.098 20.2864L124.744 20.64ZM124.744 24.42V24.92H125.244V24.42H124.744ZM117.644 24.42V23.92H117.144V24.42H117.644ZM117.644 26.44H117.144V26.6471L117.291 26.7936L117.644 26.44ZM118.744 27.54L118.391 27.8936L118.537 28.04H118.744V27.54ZM124.564 27.54H125.064V27.04H124.564V27.54ZM124.564 29V29.5H125.064V29H124.564ZM117.644 23.02H117.144V23.52H117.644V23.02ZM122.984 23.02V23.52H123.484V23.02H122.984ZM122.984 21.04H123.484V20.8329L123.338 20.6864L122.984 21.04ZM121.884 19.94L122.238 19.5864L122.091 19.44H121.884V19.94ZM118.744 19.94V19.44H118.537L118.391 19.5864L118.744 19.94ZM117.644 21.04L117.291 20.6864L117.144 20.8329V21.04H117.644ZM118.338 28.6464L116.238 26.5464L115.531 27.2536L117.631 29.3536L118.338 28.6464ZM116.384 26.9V20.64H115.384V26.9H116.384ZM116.238 20.9936L118.338 18.8936L117.631 18.1864L115.531 20.2864L116.238 20.9936ZM117.984 19.04H122.644V18.04H117.984V19.04ZM122.291 18.8936L124.391 20.9936L125.098 20.2864L122.998 18.1864L122.291 18.8936ZM124.244 20.64V24.42H125.244V20.64H124.244ZM124.744 23.92H117.644V24.92H124.744V23.92ZM117.144 24.42V26.44H118.144V24.42H117.144ZM117.291 26.7936L118.391 27.8936L119.098 27.1864L117.998 26.0864L117.291 26.7936ZM118.744 28.04H124.564V27.04H118.744V28.04ZM124.064 27.54V29H125.064V27.54H124.064ZM124.564 28.5H117.984V29.5H124.564V28.5ZM117.644 23.52H122.984V22.52H117.644V23.52ZM123.484 23.02V21.04H122.484V23.02H123.484ZM123.338 20.6864L122.238 19.5864L121.531 20.2936L122.631 21.3936L123.338 20.6864ZM121.884 19.44H118.744V20.44H121.884V19.44ZM118.391 19.5864L117.291 20.6864L117.998 21.3936L119.098 20.2936L118.391 19.5864ZM117.144 21.04V23.02H118.144V21.04H117.144ZM132.218 29H131.718V29.5H132.218V29ZM132.218 14.26V13.76H131.718V14.26H132.218ZM133.978 14.26H134.478V13.76H133.978V14.26ZM133.978 20.2H133.478V21.4392L134.338 20.547L133.978 20.2ZM135.578 18.54V18.04H135.366L135.218 18.193L135.578 18.54ZM139.438 18.54L139.793 18.1881L139.647 18.04H139.438V18.54ZM141.518 20.64H142.018V20.4343L141.873 20.2881L141.518 20.64ZM141.518 26.9L141.873 27.2519L142.018 27.1057V26.9H141.518ZM139.438 29V29.5H139.647L139.793 29.3519L139.438 29ZM135.578 29L135.22 29.3492L135.367 29.5H135.578V29ZM133.978 27.36L134.336 27.0108L133.478 26.1315V27.36H133.978ZM133.978 29V29.5H134.478V29H133.978ZM136.038 27.6L135.683 27.9518L135.83 28.1H136.038V27.6ZM138.678 27.6V28.1H138.888L139.035 27.9503L138.678 27.6ZM139.758 26.5L140.115 26.8503L140.258 26.7044V26.5H139.758ZM139.758 21.04H140.258V20.8356L140.115 20.6897L139.758 21.04ZM138.678 19.94L139.035 19.5897L138.888 19.44H138.678V19.94ZM136.038 19.94V19.44H135.828L135.681 19.5899L136.038 19.94ZM133.978 22.04L133.621 21.6899L133.478 21.8357V22.04H133.978ZM133.978 25.52H133.478V25.7257L133.623 25.8718L133.978 25.52ZM132.718 29V14.26H131.718V29H132.718ZM132.218 14.76H133.978V13.76H132.218V14.76ZM133.478 14.26V20.2H134.478V14.26H133.478ZM134.338 20.547L135.938 18.887L135.218 18.193L133.618 19.853L134.338 20.547ZM135.578 19.04H139.438V18.04H135.578V19.04ZM139.083 18.8919L141.163 20.9919L141.873 20.2881L139.793 18.1881L139.083 18.8919ZM141.018 20.64V26.9H142.018V20.64H141.018ZM141.163 26.5481L139.083 28.6481L139.793 29.3519L141.873 27.2519L141.163 26.5481ZM139.438 28.5H135.578V29.5H139.438V28.5ZM135.936 28.6508L134.336 27.0108L133.62 27.7092L135.22 29.3492L135.936 28.6508ZM133.478 27.36V29H134.478V27.36H133.478ZM133.978 28.5H132.218V29.5H133.978V28.5ZM136.038 28.1H138.678V27.1H136.038V28.1ZM139.035 27.9503L140.115 26.8503L139.401 26.1497L138.321 27.2497L139.035 27.9503ZM140.258 26.5V21.04H139.258V26.5H140.258ZM140.115 20.6897L139.035 19.5897L138.321 20.2903L139.401 21.3903L140.115 20.6897ZM138.678 19.44H136.038V20.44H138.678V19.44ZM135.681 19.5899L133.621 21.6899L134.335 22.3901L136.395 20.2901L135.681 19.5899ZM133.478 22.04V25.52H134.478V22.04H133.478ZM133.623 25.8718L135.683 27.9518L136.393 27.2482L134.333 25.1682L133.623 25.8718ZM145.873 32.74L145.412 32.5458L145.12 33.24H145.873V32.74ZM147.753 28.28L148.214 28.4742L148.506 27.78H147.753V28.28ZM147.013 28.28L146.556 28.4819L146.687 28.78H147.013V28.28ZM142.713 18.54V18.04H141.946L142.256 18.7419L142.713 18.54ZM144.653 18.54L145.114 18.3464L144.985 18.04H144.653V18.54ZM148.013 26.54L147.552 26.7336L147.681 27.04H148.013V26.54ZM148.473 26.54V27.04H148.816L148.939 26.7207L148.473 26.54ZM151.573 18.54V18.04H151.231L151.107 18.3593L151.573 18.54ZM153.493 18.54L153.956 18.7302L154.239 18.04H153.493V18.54ZM147.653 32.74V33.24H147.988L148.116 32.9302L147.653 32.74ZM146.334 32.9342L148.214 28.4742L147.292 28.0858L145.412 32.5458L146.334 32.9342ZM147.753 27.78H147.013V28.78H147.753V27.78ZM147.471 28.0781L143.171 18.3381L142.256 18.7419L146.556 28.4819L147.471 28.0781ZM142.713 19.04H144.653V18.04H142.713V19.04ZM144.192 18.7336L147.552 26.7336L148.474 26.3464L145.114 18.3464L144.192 18.7336ZM148.013 27.04H148.473V26.04H148.013V27.04ZM148.939 26.7207L152.039 18.7207L151.107 18.3593L148.007 26.3593L148.939 26.7207ZM151.573 19.04H153.493V18.04H151.573V19.04ZM153.031 18.3498L147.191 32.5498L148.116 32.9302L153.956 18.7302L153.031 18.3498ZM147.653 32.24H145.873V33.24H147.653V32.24ZM155.022 20.9H154.522V21.4H155.022V20.9ZM155.022 18.54V18.04H154.522V18.54H155.022ZM156.782 18.54H157.282V18.04H156.782V18.54ZM156.782 20.9V21.4H157.282V20.9H156.782ZM155.022 29H154.522V29.5H155.022V29ZM155.022 26.64V26.14H154.522V26.64H155.022ZM156.782 26.64H157.282V26.14H156.782V26.64ZM156.782 29V29.5H157.282V29H156.782ZM155.522 20.9V18.54H154.522V20.9H155.522ZM155.022 19.04H156.782V18.04H155.022V19.04ZM156.282 18.54V20.9H157.282V18.54H156.282ZM156.782 20.4H155.022V21.4H156.782V20.4ZM155.522 29V26.64H154.522V29H155.522ZM155.022 27.14H156.782V26.14H155.022V27.14ZM156.282 26.64V29H157.282V26.64H156.282ZM156.782 28.5H155.022V29.5H156.782V28.5ZM115.982 53L115.627 53.3519L115.774 53.5H115.982V53ZM113.902 50.9H113.402V51.1057L113.547 51.2519L113.902 50.9ZM113.902 47.52V47.02H113.402V47.52H113.902ZM115.722 47.52H116.222V47.02H115.722V47.52ZM115.722 50.28H115.222V50.4871L115.369 50.6336L115.722 50.28ZM116.822 51.38L116.469 51.7336L116.615 51.88H116.822V51.38ZM119.802 51.38V51.88H120.009L120.156 51.7336L119.802 51.38ZM120.902 50.28L121.256 50.6336L121.402 50.4871V50.28H120.902ZM120.902 38.26V37.76H120.402V38.26H120.902ZM122.722 38.26H123.222V37.76H122.722V38.26ZM122.722 50.9L123.076 51.2536L123.222 51.1071V50.9H122.722ZM120.622 53V53.5H120.829L120.976 53.3536L120.622 53ZM116.338 52.6481L114.258 50.5481L113.547 51.2519L115.627 53.3519L116.338 52.6481ZM114.402 50.9V47.52H113.402V50.9H114.402ZM113.902 48.02H115.722V47.02H113.902V48.02ZM115.222 47.52V50.28H116.222V47.52H115.222ZM115.369 50.6336L116.469 51.7336L117.176 51.0264L116.076 49.9264L115.369 50.6336ZM116.822 51.88H119.802V50.88H116.822V51.88ZM120.156 51.7336L121.256 50.6336L120.549 49.9264L119.449 51.0264L120.156 51.7336ZM121.402 50.28V38.26H120.402V50.28H121.402ZM120.902 38.76H122.722V37.76H120.902V38.76ZM122.222 38.26V50.9H123.222V38.26H122.222ZM122.369 50.5464L120.269 52.6464L120.976 53.3536L123.076 51.2536L122.369 50.5464ZM120.622 52.5H115.982V53.5H120.622V52.5ZM127.225 53L126.87 53.3519L127.017 53.5H127.225V53ZM125.145 50.9H124.645V51.1057L124.79 51.2519L125.145 50.9ZM125.145 48.52L124.79 48.1681L124.645 48.3143V48.52H125.145ZM127.225 46.42V45.92H127.017L126.87 46.0681L127.225 46.42ZM132.545 46.42V46.92H133.045V46.42H132.545ZM132.545 45.12H133.045V44.9156L132.902 44.7697L132.545 45.12ZM131.465 44.02L131.822 43.6697L131.675 43.52H131.465V44.02ZM126.505 44.02H126.005V44.52H126.505V44.02ZM126.505 42.54V42.04H126.005V42.54H126.505ZM132.225 42.54L132.581 42.1881L132.434 42.04H132.225V42.54ZM134.305 44.64H134.805V44.4343L134.661 44.2881L134.305 44.64ZM134.305 53V53.5H134.805V53H134.305ZM132.545 53H132.045V53.5H132.545V53ZM132.545 51.38H133.045V50.1729L132.192 51.0264L132.545 51.38ZM130.925 53V53.5H131.132L131.279 53.3536L130.925 53ZM128.005 51.6L127.652 51.9536L127.798 52.1H128.005V51.6ZM130.485 51.6V52.1H130.691L130.837 51.9553L130.485 51.6ZM132.545 49.56L132.897 49.9153L133.045 49.7685V49.56H132.545ZM132.545 47.8H133.045V47.2978L132.543 47.3L132.545 47.8ZM128.005 47.82L128.003 47.32L127.8 47.3209L127.655 47.4632L128.005 47.82ZM126.905 48.9L126.555 48.5432L126.405 48.6902V48.9H126.905ZM126.905 50.5H126.405V50.7071L126.552 50.8536L126.905 50.5ZM127.581 52.6481L125.501 50.5481L124.79 51.2519L126.87 53.3519L127.581 52.6481ZM125.645 50.9V48.52H124.645V50.9H125.645ZM125.501 48.8719L127.581 46.7719L126.87 46.0681L124.79 48.1681L125.501 48.8719ZM127.225 46.92H132.545V45.92H127.225V46.92ZM133.045 46.42V45.12H132.045V46.42H133.045ZM132.902 44.7697L131.822 43.6697L131.109 44.3703L132.189 45.4703L132.902 44.7697ZM131.465 43.52H126.505V44.52H131.465V43.52ZM127.005 44.02V42.54H126.005V44.02H127.005ZM126.505 43.04H132.225V42.04H126.505V43.04ZM131.87 42.8919L133.95 44.9919L134.661 44.2881L132.581 42.1881L131.87 42.8919ZM133.805 44.64V53H134.805V44.64H133.805ZM134.305 52.5H132.545V53.5H134.305V52.5ZM133.045 53V51.38H132.045V53H133.045ZM132.192 51.0264L130.572 52.6464L131.279 53.3536L132.899 51.7336L132.192 51.0264ZM130.925 52.5H127.225V53.5H130.925V52.5ZM128.005 52.1H130.485V51.1H128.005V52.1ZM130.837 51.9553L132.897 49.9153L132.193 49.2047L130.133 51.2447L130.837 51.9553ZM133.045 49.56V47.8H132.045V49.56H133.045ZM132.543 47.3L128.003 47.32L128.008 48.32L132.548 48.3L132.543 47.3ZM127.655 47.4632L126.555 48.5432L127.256 49.2568L128.356 48.1768L127.655 47.4632ZM126.405 48.9V50.5H127.405V48.9H126.405ZM126.552 50.8536L127.652 51.9536L128.359 51.2464L127.259 50.1464L126.552 50.8536ZM140.337 53L139.876 53.1954L140.006 53.5H140.337V53ZM135.897 42.54V42.04H135.141L135.436 42.7354L135.897 42.54ZM137.817 42.54L138.283 42.3589L138.159 42.04H137.817V42.54ZM141.197 51.24L140.731 51.4211L140.855 51.74H141.197V51.24ZM141.657 51.24V51.74H142L142.123 51.4201L141.657 51.24ZM145.017 42.54V42.04H144.674L144.55 42.3599L145.017 42.54ZM146.957 42.54L147.417 42.7354L147.712 42.04H146.957V42.54ZM142.517 53V53.5H142.848L142.977 53.1954L142.517 53ZM140.797 52.8046L136.357 42.3446L135.436 42.7354L139.876 53.1954L140.797 52.8046ZM135.897 43.04H137.817V42.04H135.897V43.04ZM137.351 42.7211L140.731 51.4211L141.663 51.0589L138.283 42.3589L137.351 42.7211ZM141.197 51.74H141.657V50.74H141.197V51.74ZM142.123 51.4201L145.483 42.7201L144.55 42.3599L141.19 51.0599L142.123 51.4201ZM145.017 43.04H146.957V42.04H145.017V43.04ZM146.496 42.3446L142.056 52.8046L142.977 53.1954L147.417 42.7354L146.496 42.3446ZM142.517 52.5H140.337V53.5H142.517V52.5ZM148.859 41.4H148.359V41.9H148.859V41.4ZM148.859 39.04V38.54H148.359V39.04H148.859ZM150.619 39.04H151.119V38.54H150.619V39.04ZM150.619 41.4V41.9H151.119V41.4H150.619ZM148.859 53H148.359V53.5H148.859V53ZM148.859 42.54V42.04H148.359V42.54H148.859ZM150.619 42.54H151.119V42.04H150.619V42.54ZM150.619 53V53.5H151.119V53H150.619ZM149.359 41.4V39.04H148.359V41.4H149.359ZM148.859 39.54H150.619V38.54H148.859V39.54ZM150.119 39.04V41.4H151.119V39.04H150.119ZM150.619 40.9H148.859V41.9H150.619V40.9ZM149.359 53V42.54H148.359V53H149.359ZM148.859 43.04H150.619V42.04H148.859V43.04ZM150.119 42.54V53H151.119V42.54H150.119ZM150.619 52.5H148.859V53.5H150.619V52.5ZM160.132 53L159.778 53.3536L159.925 53.5H160.132V53ZM158.032 50.9H157.532V51.1071L157.678 51.2536L158.032 50.9ZM158.032 40.36L157.678 40.0064L157.532 40.1529V40.36H158.032ZM160.132 38.26V37.76H159.925L159.778 37.9064L160.132 38.26ZM166.792 38.26L167.145 37.9064L166.999 37.76H166.792V38.26ZM168.832 40.3L169.188 40.6505L169.536 40.297L169.185 39.9464L168.832 40.3ZM167.672 41.48L167.318 41.8336L167.675 42.1901L168.028 41.8305L167.672 41.48ZM166.072 39.88L166.425 39.5264L166.279 39.38H166.072V39.88ZM160.952 39.88V39.38H160.745L160.598 39.5264L160.952 39.88ZM159.852 40.98L159.498 40.6264L159.352 40.7729V40.98H159.852ZM159.852 50.28H159.352V50.4871L159.498 50.6336L159.852 50.28ZM160.952 51.38L160.598 51.7336L160.745 51.88H160.952V51.38ZM166.232 51.38V51.88H166.439L166.585 51.7336L166.232 51.38ZM167.852 49.76L168.208 49.4095L167.855 49.0499L167.498 49.4064L167.852 49.76ZM169.012 50.94L169.364 51.2953L169.718 50.9447L169.368 50.5895L169.012 50.94ZM166.932 53V53.5H167.138L167.284 53.3553L166.932 53ZM160.485 52.6464L158.385 50.5464L157.678 51.2536L159.778 53.3536L160.485 52.6464ZM158.532 50.9V40.36H157.532V50.9H158.532ZM158.385 40.7136L160.485 38.6136L159.778 37.9064L157.678 40.0064L158.385 40.7136ZM160.132 38.76H166.792V37.76H160.132V38.76ZM166.438 38.6136L168.478 40.6536L169.185 39.9464L167.145 37.9064L166.438 38.6136ZM168.475 39.9495L167.315 41.1295L168.028 41.8305L169.188 40.6505L168.475 39.9495ZM168.025 41.1264L166.425 39.5264L165.718 40.2336L167.318 41.8336L168.025 41.1264ZM166.072 39.38H160.952V40.38H166.072V39.38ZM160.598 39.5264L159.498 40.6264L160.205 41.3336L161.305 40.2336L160.598 39.5264ZM159.352 40.98V50.28H160.352V40.98H159.352ZM159.498 50.6336L160.598 51.7336L161.305 51.0264L160.205 49.9264L159.498 50.6336ZM160.952 51.88H166.232V50.88H160.952V51.88ZM166.585 51.7336L168.205 50.1136L167.498 49.4064L165.878 51.0264L166.585 51.7336ZM167.495 50.1105L168.655 51.2905L169.368 50.5895L168.208 49.4095L167.495 50.1105ZM168.66 50.5847L166.58 52.6447L167.284 53.3553L169.364 51.2953L168.66 50.5847ZM166.932 52.5H160.132V53.5H166.932V52.5ZM172.401 53L172.046 53.3519L172.193 53.5H172.401V53ZM170.321 50.9H169.821V51.1057L169.966 51.2519L170.321 50.9ZM170.321 48.52L169.966 48.1681L169.821 48.3143V48.52H170.321ZM172.401 46.42V45.92H172.193L172.046 46.0681L172.401 46.42ZM177.721 46.42V46.92H178.221V46.42H177.721ZM177.721 45.12H178.221V44.9156L178.078 44.7697L177.721 45.12ZM176.641 44.02L176.998 43.6697L176.851 43.52H176.641V44.02ZM171.681 44.02H171.181V44.52H171.681V44.02ZM171.681 42.54V42.04H171.181V42.54H171.681ZM177.401 42.54L177.756 42.1881L177.61 42.04H177.401V42.54ZM179.481 44.64H179.981V44.4343L179.836 44.2881L179.481 44.64ZM179.481 53V53.5H179.981V53H179.481ZM177.721 53H177.221V53.5H177.721V53ZM177.721 51.38H178.221V50.1729L177.368 51.0264L177.721 51.38ZM176.101 53V53.5H176.308L176.455 53.3536L176.101 53ZM173.181 51.6L172.828 51.9536L172.974 52.1H173.181V51.6ZM175.661 51.6V52.1H175.867L176.013 51.9553L175.661 51.6ZM177.721 49.56L178.073 49.9153L178.221 49.7685V49.56H177.721ZM177.721 47.8H178.221V47.2978L177.719 47.3L177.721 47.8ZM173.181 47.82L173.179 47.32L172.976 47.3209L172.831 47.4632L173.181 47.82ZM172.081 48.9L171.731 48.5432L171.581 48.6902V48.9H172.081ZM172.081 50.5H171.581V50.7071L171.728 50.8536L172.081 50.5ZM172.756 52.6481L170.676 50.5481L169.966 51.2519L172.046 53.3519L172.756 52.6481ZM170.821 50.9V48.52H169.821V50.9H170.821ZM170.676 48.8719L172.756 46.7719L172.046 46.0681L169.966 48.1681L170.676 48.8719ZM172.401 46.92H177.721V45.92H172.401V46.92ZM178.221 46.42V45.12H177.221V46.42H178.221ZM178.078 44.7697L176.998 43.6697L176.284 44.3703L177.364 45.4703L178.078 44.7697ZM176.641 43.52H171.681V44.52H176.641V43.52ZM172.181 44.02V42.54H171.181V44.02H172.181ZM171.681 43.04H177.401V42.04H171.681V43.04ZM177.046 42.8919L179.126 44.9919L179.836 44.2881L177.756 42.1881L177.046 42.8919ZM178.981 44.64V53H179.981V44.64H178.981ZM179.481 52.5H177.721V53.5H179.481V52.5ZM178.221 53V51.38H177.221V53H178.221ZM177.368 51.0264L175.748 52.6464L176.455 53.3536L178.075 51.7336L177.368 51.0264ZM176.101 52.5H172.401V53.5H176.101V52.5ZM173.181 52.1H175.661V51.1H173.181V52.1ZM176.013 51.9553L178.073 49.9153L177.369 49.2047L175.309 51.2447L176.013 51.9553ZM178.221 49.56V47.8H177.221V49.56H178.221ZM177.719 47.3L173.179 47.32L173.183 48.32L177.723 48.3L177.719 47.3ZM172.831 47.4632L171.731 48.5432L172.431 49.2568L173.531 48.1768L172.831 47.4632ZM171.581 48.9V50.5H172.581V48.9H171.581ZM171.728 50.8536L172.828 51.9536L173.535 51.2464L172.435 50.1464L171.728 50.8536ZM182.667 41.4H182.167V41.9H182.667V41.4ZM182.667 39.04V38.54H182.167V39.04H182.667ZM184.427 39.04H184.927V38.54H184.427V39.04ZM184.427 41.4V41.9H184.927V41.4H184.427ZM182.667 53H182.167V53.5H182.667V53ZM182.667 42.54V42.04H182.167V42.54H182.667ZM184.427 42.54H184.927V42.04H184.427V42.54ZM184.427 53V53.5H184.927V53H184.427ZM183.167 41.4V39.04H182.167V41.4H183.167ZM182.667 39.54H184.427V38.54H182.667V39.54ZM183.927 39.04V41.4H184.927V39.04H183.927ZM184.427 40.9H182.667V41.9H184.427V40.9ZM183.167 53V42.54H182.167V53H183.167ZM182.667 43.04H184.427V42.04H182.667V43.04ZM183.927 42.54V53H184.927V42.54H183.927ZM184.427 52.5H182.667V53.5H184.427V52.5ZM189.547 53L189.193 53.3536L189.34 53.5H189.547V53ZM187.447 50.9H186.947V51.1071L187.093 51.2536L187.447 50.9ZM187.447 44.64L187.093 44.2864L186.947 44.4329V44.64H187.447ZM189.547 42.54V42.04H189.34L189.193 42.1864L189.547 42.54ZM194.507 42.54L194.86 42.1864L194.714 42.04H194.507V42.54ZM196.607 44.64H197.107V44.4329L196.96 44.2864L196.607 44.64ZM196.607 50.9L196.96 51.2536L197.107 51.1071V50.9H196.607ZM194.507 53V53.5H194.714L194.86 53.3536L194.507 53ZM190.307 51.6L189.953 51.9536L190.1 52.1H190.307V51.6ZM193.747 51.6V52.1H193.954L194.1 51.9536L193.747 51.6ZM194.847 50.5L195.2 50.8536L195.348 50.7063L195.347 50.4982L194.847 50.5ZM194.827 45.04L195.327 45.0382L195.326 44.8348L195.184 44.6897L194.827 45.04ZM193.747 43.94L194.104 43.5897L193.957 43.44H193.747V43.94ZM190.307 43.94V43.44H190.1L189.953 43.5864L190.307 43.94ZM189.207 45.04L188.853 44.6864L188.707 44.8329V45.04H189.207ZM189.207 50.5H188.707V50.7071L188.853 50.8536L189.207 50.5ZM189.9 52.6464L187.8 50.5464L187.093 51.2536L189.193 53.3536L189.9 52.6464ZM187.947 50.9V44.64H186.947V50.9H187.947ZM187.8 44.9936L189.9 42.8936L189.193 42.1864L187.093 44.2864L187.8 44.9936ZM189.547 43.04H194.507V42.04H189.547V43.04ZM194.153 42.8936L196.253 44.9936L196.96 44.2864L194.86 42.1864L194.153 42.8936ZM196.107 44.64V50.9H197.107V44.64H196.107ZM196.253 50.5464L194.153 52.6464L194.86 53.3536L196.96 51.2536L196.253 50.5464ZM194.507 52.5H189.547V53.5H194.507V52.5ZM190.307 52.1H193.747V51.1H190.307V52.1ZM194.1 51.9536L195.2 50.8536L194.493 50.1464L193.393 51.2464L194.1 51.9536ZM195.347 50.4982L195.327 45.0382L194.327 45.0418L194.347 50.5018L195.347 50.4982ZM195.184 44.6897L194.104 43.5897L193.39 44.2903L194.47 45.3903L195.184 44.6897ZM193.747 43.44H190.307V44.44H193.747V43.44ZM189.953 43.5864L188.853 44.6864L189.56 45.3936L190.66 44.2936L189.953 43.5864ZM188.707 45.04V50.5H189.707V45.04H188.707ZM188.853 50.8536L189.953 51.9536L190.66 51.2464L189.56 50.1464L188.853 50.8536ZM199.64 53H199.14V53.5H199.64V53ZM199.64 38.26V37.76H199.14V38.26H199.64ZM201.4 38.26H201.9V37.76H201.4V38.26ZM201.4 53V53.5H201.9V53H201.4ZM200.14 53V38.26H199.14V53H200.14ZM199.64 38.76H201.4V37.76H199.64V38.76ZM200.9 38.26V53H201.9V38.26H200.9ZM201.4 52.5H199.64V53.5H201.4V52.5ZM205.8 53L205.444 53.3519L205.591 53.5H205.8V53ZM203.72 50.9H203.22V51.1057L203.364 51.2519L203.72 50.9ZM203.72 48.52L203.364 48.1681L203.22 48.3143V48.52H203.72ZM205.8 46.42V45.92H205.591L205.444 46.0681L205.8 46.42ZM211.12 46.42V46.92H211.62V46.42H211.12ZM211.12 45.12H211.62V44.9156L211.476 44.7697L211.12 45.12ZM210.04 44.02L210.396 43.6697L210.249 43.52H210.04V44.02ZM205.08 44.02H204.58V44.52H205.08V44.02ZM205.08 42.54V42.04H204.58V42.54H205.08ZM210.8 42.54L211.155 42.1881L211.008 42.04H210.8V42.54ZM212.88 44.64H213.38V44.4343L213.235 44.2881L212.88 44.64ZM212.88 53V53.5H213.38V53H212.88ZM211.12 53H210.62V53.5H211.12V53ZM211.12 51.38H211.62V50.1729L210.766 51.0264L211.12 51.38ZM209.5 53V53.5H209.707L209.853 53.3536L209.5 53ZM206.58 51.6L206.226 51.9536L206.372 52.1H206.58V51.6ZM209.06 51.6V52.1H209.265L209.411 51.9553L209.06 51.6ZM211.12 49.56L211.471 49.9153L211.62 49.7685V49.56H211.12ZM211.12 47.8H211.62V47.2978L211.117 47.3L211.12 47.8ZM206.58 47.82L206.577 47.32L206.374 47.3209L206.229 47.4632L206.58 47.82ZM205.48 48.9L205.129 48.5432L204.98 48.6902V48.9H205.48ZM205.48 50.5H204.98V50.7071L205.126 50.8536L205.48 50.5ZM206.155 52.6481L204.075 50.5481L203.364 51.2519L205.444 53.3519L206.155 52.6481ZM204.22 50.9V48.52H203.22V50.9H204.22ZM204.075 48.8719L206.155 46.7719L205.444 46.0681L203.364 48.1681L204.075 48.8719ZM205.8 46.92H211.12V45.92H205.8V46.92ZM211.62 46.42V45.12H210.62V46.42H211.62ZM211.476 44.7697L210.396 43.6697L209.683 44.3703L210.763 45.4703L211.476 44.7697ZM210.04 43.52H205.08V44.52H210.04V43.52ZM205.58 44.02V42.54H204.58V44.02H205.58ZM205.08 43.04H210.8V42.04H205.08V43.04ZM210.444 42.8919L212.524 44.9919L213.235 44.2881L211.155 42.1881L210.444 42.8919ZM212.38 44.64V53H213.38V44.64H212.38ZM212.88 52.5H211.12V53.5H212.88V52.5ZM211.62 53V51.38H210.62V53H211.62ZM210.766 51.0264L209.146 52.6464L209.853 53.3536L211.473 51.7336L210.766 51.0264ZM209.5 52.5H205.8V53.5H209.5V52.5ZM206.58 52.1H209.06V51.1H206.58V52.1ZM209.411 51.9553L211.471 49.9153L210.768 49.2047L208.708 51.2447L209.411 51.9553ZM211.62 49.56V47.8H210.62V49.56H211.62ZM211.117 47.3L206.577 47.32L206.582 48.32L211.122 48.3L211.117 47.3ZM206.229 47.4632L205.129 48.5432L205.83 49.2568L206.93 48.1768L206.229 47.4632ZM204.98 48.9V50.5H205.98V48.9H204.98ZM205.126 50.8536L206.226 51.9536L206.933 51.2464L205.833 50.1464L205.126 50.8536Z" fill="black" fill-opacity="0.58"/>
<g clip-path="url(#clip1_1_2)">
<path d="M226 8C220.475 8 216 12.475 216 18C216 22.425 218.862 26.1625 222.837 27.4875C223.337 27.575 223.525 27.275 223.525 27.0125C223.525 26.775 223.513 25.9875 223.513 25.15C221 25.6125 220.35 24.5375 220.15 23.975C220.037 23.6875 219.55 22.8 219.125 22.5625C218.775 22.375 218.275 21.9125 219.113 21.9C219.9 21.8875 220.463 22.625 220.65 22.925C221.55 24.4375 222.988 24.0125 223.563 23.75C223.65 23.1 223.912 22.6625 224.2 22.4125C221.975 22.1625 219.65 21.3 219.65 17.475C219.65 16.3875 220.038 15.4875 220.675 14.7875C220.575 14.5375 220.225 13.5125 220.775 12.1375C220.775 12.1375 221.613 11.875 223.525 13.1625C224.325 12.9375 225.175 12.825 226.025 12.825C226.875 12.825 227.725 12.9375 228.525 13.1625C230.438 11.8625 231.275 12.1375 231.275 12.1375C231.825 13.5125 231.475 14.5375 231.375 14.7875C232.013 15.4875 232.4 16.375 232.4 17.475C232.4 21.3125 230.063 22.1625 227.838 22.4125C228.2 22.725 228.513 23.325 228.513 24.2625C228.513 25.6 228.5 26.675 228.5 27.0125C228.5 27.275 228.688 27.5875 229.188 27.4875C231.173 26.8175 232.898 25.5417 234.12 23.8397C235.342 22.1377 236 20.0953 236 18C236 12.475 231.525 8 226 8Z" fill="#343434"/>
</g>
<g clip-path="url(#clip2_1_2)">
<path d="M246 10.4325C246 9.64125 246.657 9 247.469 9H264.531C265.342 9 266 9.64125 266 10.4325V27.5675C266 28.3588 265.342 29 264.531 29H247.469C246.657 29 246 28.3588 246 27.5675V10.4325ZM252.179 25.7425V16.7113H249.178V25.7425H252.179ZM250.679 15.4775C251.725 15.4775 252.376 14.785 252.376 13.9175C252.357 13.0313 251.726 12.3575 250.699 12.3575C249.671 12.3575 249 13.0325 249 13.9175C249 14.785 249.651 15.4775 250.659 15.4775H250.679ZM256.814 25.7425V20.6988C256.814 20.4288 256.834 20.1587 256.914 19.9662C257.13 19.4275 257.624 18.8687 258.454 18.8687C259.54 18.8687 259.974 19.6963 259.974 20.9113V25.7425H262.975V20.5625C262.975 17.7875 261.495 16.4975 259.52 16.4975C257.927 16.4975 257.214 17.3725 256.814 17.9887V18.02H256.794C256.8 18.0096 256.807 17.9991 256.814 17.9887V16.7113H253.814C253.851 17.5588 253.814 25.7425 253.814 25.7425H256.814Z" fill="#343434"/>
</g>
</g>
<defs>
<clipPath id="clip0_1_2">
<rect width="287" height="69" fill="white"/>
</clipPath>
<clipPath id="clip1_1_2">
<rect width="20" height="20" fill="white" transform="translate(216 8)"/>
</clipPath>
<clipPath id="clip2_1_2">
<rect width="20" height="20" fill="white" transform="translate(246 9)"/>
</clipPath>
</defs>
</svg>
